<svg width="32" height="21" fill="none" xmlns="http://www.w3.org/2000/svg"><path d="M2.9 0h26.15C30.7 0 32 1.3 32 2.85v15.3c0 1.6-1.3 2.85-2.9 2.85H2.9C1.3 21 0 19.7 0 18.15V2.85C0 1.3 1.3 0 2.9 0z" fill="#CE1126"/><path d="M0 18.15C0 19.7 1.3 21 2.9 21h26.2c1.6 0 2.9-1.25 2.9-2.85V7H0v11.15z" fill="#000"/><path d="M32 7H0v7h32V7z" fill="#fff"/><path d="M18.3 12.7l-.05-1.3-.1-2.5c0-.6-.55-.45-.9-.25-.2.15-.45.2-.65.2-.1-.15-.2-.5-.15-.75 0-.25 0-.4-.05-.45 0-.05-.05-.05-.05-.05-.05-.05-.3-.1-.4-.15-.1 0-.05.05-.05.05-.15-.05-.3-.05-.35 0l-.05.05v.15c.1-.1.2 0 .25.1 0 0 .05.05.05.1 0 .1 0 .3-.05.5s-.15.35-.25.5c-.25 0-.45-.05-.65-.2-.35-.2-.85-.35-.9.25l-.15 3.8.25-.2.1-.05.05-.05.7-.65.15-.15-.35.85c-.05 0-.1-.05-.15-.05-.05 0-.05 0-.1.05-.15 0-.2.15-.15.25h.05c0 .05-.05.05-.05.1-.15-.05-.15.2-.25.15.1 0 .05.2.2.25 0 .1 0 .2.15.2.35.1 1 .15 1.65.15.65 0 1.3-.05 1.65-.15.15-.05.15-.1.15-.2.15-.05.1-.25.2-.25-.1.05-.15-.2-.25-.15 0-.05 0-.05-.05-.1h.05c.05-.1 0-.25-.15-.25-.05 0-.05-.05-.1-.05s-.1.05-.15.05l-.25-.95.2.15.1.1.2.2.25.25.1.1.1.05.2.3zm-2.45 0s-.05-.05-.1-.05h-.2l.05-.2.1.1.1-.1.15-1.1-.05 1.15.1.15.1-.15-.05-1.1.15 1.1.1.1.1-.1.05.2h-.2c-.05 0-.1.05-.1.1v-.05c-.1 0-.1.05-.1.15h-.1c0-.15-.05-.2-.1-.2zm-1.45-.05c.05 0 .05 0 0 0zm3.15 0c.05 0 .05 0 0 0h.05-.05z" fill="#FCD327"/></svg>