<svg width="80" height="90" fill="none" xmlns="http://www.w3.org/2000/svg"><path d="M12.037 75.287c17.58-5 35.16-10.178 52.74-15.177.474 2.32 1.108 4.82 1.583 7.142C48.938 72.43 31.359 77.43 13.937 82.608a426.181 426.181 0 01-1.9-7.32z" stroke="#073D37" stroke-width="3" stroke-miterlimit="10" stroke-linecap="round" stroke-linejoin="round"/><path d="M20.747 69.573l-8.552-2.142c.634-2.322 1.267-4.464 1.742-6.786 7.92 2.5 15.996 5 23.915 7.321" stroke="#073D37" stroke-width="3" stroke-miterlimit="10" stroke-linejoin="round"/><path d="M57.65 72.609c2.85.893 5.86 1.785 8.71 2.5-.633 2.142-1.267 4.464-1.742 6.606-8.553-2.142-17.105-4.285-25.657-6.606M34.526 58.86c-6.493.892-12.828-2.143-15.996-7.857-4.118-7.32-2.534-18.213 4.435-24.463-.159.536-1.109 4.643 1.267 8.393 2.534 3.928 6.81 3.928 7.127 3.928" stroke="#073D37" stroke-width="3" stroke-miterlimit="10" stroke-linecap="round" stroke-linejoin="round"/><path d="M30.409 32.79c0-2.678.316-8.035 3.167-13.928 3.801-7.5 9.503-10.892 11.562-11.963-.317 1.071-5.544 17.142 2.375 27.14a17.25 17.25 0 005.86 4.822c.475-.714 1.584-2.5 1.742-4.821.475-4.286-2.059-7.321-2.375-7.678 6.493 2.5 10.77 8.928 10.928 15.892.158 8.57-6.335 16.427-14.888 17.32 1.109-1.607 1.584-3.214 1.742-4.285.792-6.25-4.276-13.392-12.828-17.857 2.85 4.465 1.425 10.178-1.426 11.785-2.692 1.429-7.127-.178-8.869-5-.158.894-.633 3.393.317 6.25.634 1.786 1.425 2.857 2.059 3.572" stroke="#073D37" stroke-width="3" stroke-miterlimit="10" stroke-linecap="round" stroke-linejoin="round"/></svg>