<svg width="98" height="106" fill="none" xmlns="http://www.w3.org/2000/svg"><path d="M37.148 43.69c1.76 3.15 3.52 6.51 5.28 9.66 2.346-3.36 4.692-6.93 7.038-10.29h11.731m-.782 20.58c1.76 2.1 3.52 4.2 5.084 6.3 1.76-2.31 3.519-4.41 5.083-6.72h9.776m-64.717 1.47l5.28 6.93c1.759-2.52 3.714-4.83 5.474-7.35h10.167M50.248 85.9c-10.949 0-21.898.21-32.847.21" stroke="#073D37" stroke-width="3" stroke-miterlimit="10" stroke-linecap="round" stroke-linejoin="round"/><path d="M31.674 53.98c4.692-10.71 9.58-21.42 14.273-32.34 1.173-2.52 4.496-2.52 5.67-.21 4.692 9.66 9.58 19.32 14.273 29.19M50.64 85.9c6.06-13.44 11.926-27.09 17.987-40.53.586-1.47 2.541-1.47 3.128 0L91.502 85.9H50.64z" stroke="#073D37" stroke-width="3" stroke-miterlimit="10" stroke-linecap="round" stroke-linejoin="round"/><path d="M6.257 86.11A3591.505 3591.505 0 0124.049 46c.782-1.68 2.933-1.68 3.715 0l19.551 39.9-41.058.21z" stroke="#073D37" stroke-width="3" stroke-miterlimit="10" stroke-linecap="round" stroke-linejoin="round"/></svg>