<svg width="218" height="40" fill="none" xmlns="http://www.w3.org/2000/svg"><path d="M42.516 34V8.1h16.909v3.811H47.252v7.104h11.063v3.7H47.252v7.474h12.173V34H42.516zm28.42.444c-1.726 0-3.268-.42-4.624-1.258-1.357-.839-2.43-1.986-3.22-3.441-.789-1.455-1.183-3.108-1.183-4.958s.394-3.49 1.184-4.921c.789-1.455 1.862-2.59 3.219-3.404 1.356-.839 2.898-1.258 4.625-1.258 1.381 0 2.59.259 3.626.777a6.536 6.536 0 012.516 2.183V7.36h4.736V34h-4.218l-.518-2.627c-.592.814-1.382 1.53-2.368 2.146-.962.617-2.22.925-3.774.925zm1-4.144c1.529 0 2.775-.506 3.737-1.517.986-1.036 1.48-2.356 1.48-3.959 0-1.603-.494-2.91-1.48-3.922-.962-1.036-2.208-1.554-3.737-1.554-1.505 0-2.75.506-3.737 1.517-.987 1.011-1.48 2.319-1.48 3.922 0 1.603.493 2.923 1.48 3.959.986 1.036 2.232 1.554 3.737 1.554zm22.323 4.144c-1.85 0-3.49-.395-4.92-1.184a8.57 8.57 0 01-3.368-3.33c-.814-1.43-1.22-3.083-1.22-4.958 0-1.9.394-3.589 1.183-5.069.814-1.48 1.924-2.627 3.33-3.441 1.431-.839 3.108-1.258 5.032-1.258 1.801 0 3.392.395 4.773 1.184a8.328 8.328 0 013.219 3.256c.79 1.357 1.184 2.874 1.184 4.551 0 .271-.012.555-.037.851 0 .296-.012.604-.037.925H89.449c.099 1.43.592 2.553 1.48 3.367.913.814 2.01 1.221 3.293 1.221.962 0 1.764-.21 2.405-.629a4.092 4.092 0 001.48-1.702h4.81a8.753 8.753 0 01-1.739 3.182c-.789.937-1.776 1.677-2.96 2.22-1.159.543-2.479.814-3.959.814zm.037-15.392c-1.159 0-2.183.333-3.07.999-.889.641-1.456 1.628-1.703 2.96h9.14c-.075-1.209-.519-2.17-1.333-2.886-.814-.715-1.825-1.073-3.034-1.073zM106.161 34V15.648h4.181l.37 3.108a6.485 6.485 0 012.442-2.59c1.085-.641 2.355-.962 3.811-.962 2.269 0 4.033.715 5.291 2.146 1.258 1.43 1.887 3.527 1.887 6.29V34h-4.736v-9.916c0-1.579-.321-2.787-.962-3.626-.642-.839-1.641-1.258-2.997-1.258-1.332 0-2.43.469-3.293 1.406-.839.937-1.258 2.245-1.258 3.922V34h-4.736z" fill="#17C3B2"/><path d="M133.777 34V10.653h-7.733V8.1h18.574v2.553h-7.733V34h-3.108zm11.061 0V15.648h2.812l.259 3.515a6.646 6.646 0 012.59-2.886c1.159-.715 2.59-1.073 4.292-1.073v3.256h-.851c-1.086 0-2.085.197-2.997.592-.913.37-1.641 1.011-2.183 1.924-.543.913-.814 2.17-.814 3.774V34h-3.108zm18.251.444c-1.529 0-2.799-.259-3.811-.777-1.011-.518-1.763-1.209-2.257-2.072a5.575 5.575 0 01-.74-2.812c0-1.875.716-3.318 2.146-4.329 1.431-1.011 3.38-1.517 5.846-1.517h4.958v-.222c0-1.603-.419-2.812-1.258-3.626-.838-.839-1.961-1.258-3.367-1.258-1.208 0-2.257.308-3.145.925-.863.592-1.406 1.468-1.628 2.627h-3.182c.124-1.332.568-2.454 1.332-3.367a7.541 7.541 0 012.923-2.072 9.355 9.355 0 013.7-.74c2.566 0 4.49.69 5.772 2.072 1.308 1.357 1.961 3.17 1.961 5.439V34h-2.775l-.185-3.293c-.518 1.036-1.282 1.924-2.294 2.664-.986.715-2.318 1.073-3.996 1.073zm.481-2.627c1.184 0 2.196-.308 3.034-.925a5.844 5.844 0 001.961-2.405 7.49 7.49 0 00.666-3.108v-.037h-4.699c-1.825 0-3.12.32-3.885.962-.74.617-1.11 1.394-1.11 2.331 0 .962.346 1.739 1.036 2.331.716.567 1.715.851 2.997.851zM180.311 34l-6.956-18.352h3.256l5.513 15.355 5.55-15.355h3.182L183.9 34h-3.589zm20.021.444c-1.752 0-3.306-.395-4.662-1.184-1.357-.814-2.43-1.936-3.219-3.367-.765-1.43-1.147-3.12-1.147-5.069 0-1.924.382-3.601 1.147-5.032.764-1.455 1.825-2.578 3.182-3.367 1.381-.814 2.972-1.221 4.773-1.221 1.776 0 3.305.407 4.588 1.221 1.307.79 2.306 1.838 2.997 3.145a8.902 8.902 0 011.036 4.218c0 .271-.013.543-.037.814v.925h-14.615c.074 1.406.394 2.578.962 3.515.592.913 1.319 1.603 2.183 2.072a5.94 5.94 0 002.812.703c1.282 0 2.355-.296 3.219-.888.863-.592 1.492-1.394 1.887-2.405h3.071c-.494 1.702-1.443 3.12-2.849 4.255-1.382 1.11-3.158 1.665-5.328 1.665zm0-16.613c-1.48 0-2.8.456-3.959 1.369-1.135.888-1.789 2.195-1.961 3.922h11.544c-.074-1.653-.642-2.948-1.702-3.885-1.061-.937-2.368-1.406-3.922-1.406zM211.851 34V7.36h3.108V34h-3.108z" fill="#fff"/><path d="M25.538 7.54c.82 0 1.607-.382 2.187-1.064.58-.682.906-1.607.906-2.57 0-.965-.326-1.89-.906-2.571C27.145.653 26.358.27 25.538.27c-.82 0-1.608.383-2.188 1.065-.58.682-.906 1.606-.906 2.57 0 .964.326 1.889.906 2.57.58.683 1.367 1.066 2.188 1.066zm-5.433 7.915c.064-.03.122-.06.187-.091l-1.09 4.809c-.36 1.598-.006 3.302.948 4.521l4.556 5.84 1.418 6.672c.277 1.295 1.399 2.09 2.5 1.764 1.103-.325 1.78-1.643 1.502-2.938l-1.482-6.975a3.826 3.826 0 00-.722-1.576l-3.19-4.09 1.244-4.96.619 1.742c.283.803.805 1.462 1.469 1.856l1.72 1.007c1.019.598 2.256.113 2.765-1.083.51-1.197.097-2.65-.921-3.25l-1.386-.81-.986-2.787c-1.108-3.112-3.699-5.142-6.573-5.142a9.22 9.22 0 00-4.26 1.06l-.515.265c-2.12 1.106-3.745 3.212-4.473 5.794l-.167.59c-.361 1.273.225 2.644 1.301 3.068 1.076.424 2.25-.265 2.61-1.53l.168-.59c.367-1.296 1.18-2.34 2.236-2.894l.516-.265.006-.007zm-1.933 10.231l-1.611 4.726-3.828 4.499c-.806.947-.806 2.484 0 3.43.805.947 2.113.947 2.919 0l3.976-4.672c.297-.348.529-.765.683-1.22l.935-2.741-2.623-3.363a7.258 7.258 0 01-.451-.651v-.008zm-3.977-4.657c-.496-.333-1.12-.137-1.41.447l-2.063 4.195-3.506-2.378c-.986-.666-2.249-.272-2.816.886l-4.124 8.4c-.567 1.158-.232 2.642.754 3.309L4.6 38.31c.986.667 2.249.273 2.816-.886l4.124-8.399c.097-.197.168-.393.213-.605l2.823-5.734c.283-.583.116-1.317-.38-1.658z" fill="#17C3B2"/></svg>