<svg width="182" height="34" fill="none" xmlns="http://www.w3.org/2000/svg"><path d="M40.04 27.075v-21h13.71v3.09h-9.87v5.76h8.97v3h-8.97v6.06h9.87v3.09H40.04zm23.044.36c-1.4 0-2.65-.34-3.75-1.02-1.1-.68-1.97-1.61-2.61-2.79-.64-1.18-.96-2.52-.96-4.02 0-1.5.32-2.83.96-3.99.64-1.18 1.51-2.1 2.61-2.76 1.1-.68 2.35-1.02 3.75-1.02 1.12 0 2.1.21 2.94.63a5.3 5.3 0 012.04 1.77v-8.76h3.84v21.6h-3.42l-.42-2.13c-.48.66-1.12 1.24-1.92 1.74-.78.5-1.8.75-3.06.75zm.81-3.36c1.24 0 2.25-.41 3.03-1.23.8-.84 1.2-1.91 1.2-3.21s-.4-2.36-1.2-3.18c-.78-.84-1.79-1.26-3.03-1.26-1.22 0-2.23.41-3.03 1.23-.8.82-1.2 1.88-1.2 3.18 0 1.3.4 2.37 1.2 3.21.8.84 1.81 1.26 3.03 1.26zm18.1 3.36c-1.5 0-2.83-.32-3.99-.96a6.948 6.948 0 01-2.73-2.7c-.66-1.16-.99-2.5-.99-4.02 0-1.54.32-2.91.96-4.11.66-1.2 1.56-2.13 2.7-2.79 1.16-.68 2.52-1.02 4.08-1.02 1.46 0 2.75.32 3.87.96 1.12.64 1.99 1.52 2.61 2.64.64 1.1.96 2.33.96 3.69 0 .22-.01.45-.03.69 0 .24-.01.49-.03.75h-11.31c.08 1.16.48 2.07 1.2 2.73.74.66 1.63.99 2.67.99.78 0 1.43-.17 1.95-.51.54-.36.94-.82 1.2-1.38h3.9c-.28.94-.75 1.8-1.41 2.58-.64.76-1.44 1.36-2.4 1.8-.94.44-2.01.66-3.21.66zm.03-12.48c-.94 0-1.77.27-2.49.81-.72.52-1.18 1.32-1.38 2.4h7.41c-.06-.98-.42-1.76-1.08-2.34-.66-.58-1.48-.87-2.46-.87zm9.62 12.12v-14.88h3.39l.3 2.52c.46-.88 1.12-1.58 1.98-2.1.88-.52 1.91-.78 3.09-.78 1.84 0 3.27.58 4.29 1.74 1.02 1.16 1.53 2.86 1.53 5.1v8.4h-3.84v-8.04c0-1.28-.26-2.26-.78-2.94-.52-.68-1.33-1.02-2.43-1.02-1.08 0-1.97.38-2.67 1.14-.68.76-1.02 1.82-1.02 3.18v7.68h-3.84z" fill="#17C3B2"/><path d="M114.036 27.075V8.145h-6.27v-2.07h15.06v2.07h-6.27v18.93h-2.52zm8.968 0v-14.88h2.28l.21 2.85c.46-.98 1.16-1.76 2.1-2.34.94-.58 2.1-.87 3.48-.87v2.64h-.69c-.88 0-1.69.16-2.43.48-.74.3-1.33.82-1.77 1.56-.44.74-.66 1.76-.66 3.06v7.5h-2.52zm14.798.36c-1.24 0-2.27-.21-3.09-.63-.82-.42-1.43-.98-1.83-1.68-.4-.7-.6-1.46-.6-2.28 0-1.52.58-2.69 1.74-3.51 1.16-.82 2.74-1.23 4.74-1.23h4.02v-.18c0-1.3-.34-2.28-1.02-2.94-.68-.68-1.59-1.02-2.73-1.02-.98 0-1.83.25-2.55.75-.7.48-1.14 1.19-1.32 2.13h-2.58c.1-1.08.46-1.99 1.08-2.73.64-.74 1.43-1.3 2.37-1.68.94-.4 1.94-.6 3-.6 2.08 0 3.64.56 4.68 1.68 1.06 1.1 1.59 2.57 1.59 4.41v9.15h-2.25l-.15-2.67c-.42.84-1.04 1.56-1.86 2.16-.8.58-1.88.87-3.24.87zm.39-2.13c.96 0 1.78-.25 2.46-.75.7-.5 1.23-1.15 1.59-1.95.36-.8.54-1.64.54-2.52v-.03h-3.81c-1.48 0-2.53.26-3.15.78-.6.5-.9 1.13-.9 1.89 0 .78.28 1.41.84 1.89.58.46 1.39.69 2.43.69zm13.574 1.77l-5.64-14.88h2.64l4.47 12.45 4.5-12.45h2.58l-5.64 14.88h-2.91zm16.233.36c-1.42 0-2.68-.32-3.78-.96a7.14 7.14 0 01-2.61-2.73c-.62-1.16-.93-2.53-.93-4.11 0-1.56.31-2.92.93-4.08.62-1.18 1.48-2.09 2.58-2.73 1.12-.66 2.41-.99 3.87-.99 1.44 0 2.68.33 3.72.99 1.06.64 1.87 1.49 2.43 2.55.56 1.06.84 2.2.84 3.42 0 .22-.01.44-.03.66v.75h-11.85c.06 1.14.32 2.09.78 2.85.48.74 1.07 1.3 1.77 1.68.72.38 1.48.57 2.28.57 1.04 0 1.91-.24 2.61-.72a4.12 4.12 0 001.53-1.95h2.49c-.4 1.38-1.17 2.53-2.31 3.45-1.12.9-2.56 1.35-4.32 1.35zm0-13.47c-1.2 0-2.27.37-3.21 1.11-.92.72-1.45 1.78-1.59 3.18h9.36c-.06-1.34-.52-2.39-1.38-3.15-.86-.76-1.92-1.14-3.18-1.14zm9.34 13.11v-21.6h2.52v21.6h-2.52z" fill="#333"/><path d="M25.538 6.333c.82 0 1.607-.333 2.187-.927.58-.594.906-1.4.906-2.24 0-.84-.326-1.645-.906-2.239A3.057 3.057 0 0025.538 0c-.82 0-1.608.334-2.188.927-.58.594-.906 1.4-.906 2.24 0 .84.326 1.645.906 2.239.58.594 1.367.927 2.188.927zm-5.433 6.894c.064-.026.122-.053.187-.08l-1.09 4.19a4.29 4.29 0 00.948 3.938l4.556 5.087 1.418 5.812c.277 1.128 1.399 1.82 2.5 1.537 1.103-.284 1.78-1.432 1.502-2.56l-1.482-6.076a3.154 3.154 0 00-.722-1.372l-3.19-3.562 1.244-4.321.619 1.517a3.15 3.15 0 001.469 1.616l1.72.878a2.04 2.04 0 002.765-.944c.51-1.042.097-2.309-.921-2.83l-1.386-.706-.986-2.428c-1.108-2.71-3.699-4.479-6.573-4.479-1.47 0-2.92.317-4.26.924l-.515.23a8.359 8.359 0 00-4.473 5.047l-.167.515c-.361 1.108.225 2.302 1.301 2.672 1.076.37 2.25-.231 2.61-1.333l.168-.514a4.182 4.182 0 012.236-2.52l.516-.231.006-.007zm-1.933 8.913l-1.611 4.116-3.828 3.919a2.15 2.15 0 000 2.988 2.032 2.032 0 002.919 0l3.976-4.07c.297-.304.529-.666.683-1.062l.935-2.388-2.623-2.93a6.389 6.389 0 01-.451-.567v-.006zm-3.977-4.058a1.021 1.021 0 00-1.41.39l-2.063 3.654-3.506-2.071a2.037 2.037 0 00-2.816.772L.276 28.143c-.567 1.01-.232 2.302.754 2.883l3.57 2.11a2.036 2.036 0 002.816-.771l4.124-7.316c.097-.172.168-.343.213-.528l2.823-4.994a1.072 1.072 0 00-.38-1.445z" fill="#17C3B2"/></svg>