<svg width="86" height="86" fill="none" xmlns="http://www.w3.org/2000/svg"><g clip-path="url(#clip0_5_112)" stroke="#073D37" stroke-width="3" stroke-miterlimit="10" stroke-linejoin="round"><path d="M74.765 29.84c0 16.15.17 32.47.17 48.62-7.31-3.74-14.62-7.48-22.1-11.22-7.31 3.74-14.45 7.31-21.76 11.05-7.31-3.74-14.62-7.48-22.1-11.22V17.94c7.31 3.74 14.62 7.31 21.93 11.05 7.14-3.4 14.45-6.97 21.59-10.37m.34 6.8V46.5m.17 7.48v13.43"/><path d="M75.275 24.06c1.36-1.87 2.21-4.08 2.21-6.63 0-6.29-5.1-11.56-11.56-11.56-7.14 0-11.22 6.63-11.39 11.56 0 .34 0 2.21.85 4.25.17.51.51 1.02.85 1.53"/><path d="M56.065 23.21c3.23 4.76 6.29 9.52 9.52 14.28l10.2-14.28m-9.69-.85a4.59 4.59 0 100-9.18 4.59 4.59 0 000 9.18zm-48.45 29.75l6.63 6.63m0-6.63l-6.63 6.63m47.26-15.98c-.51.85-.85 1.53-1.36 2.38m-2.21 2.72l-4.59 2.04m-3.06.68c-1.7-.51-3.4-1.02-5.27-1.36m-3.06-1.19c-1.53-.85-3.06-1.87-4.42-2.72m-2.72-1.36l-4.59-2.55m-3.4-.34c-1.7 0-3.57.17-5.27.17m-2.04 2.38c-.68 1.53-1.36 3.23-2.04 4.76m10.2-3.23c0 11.05 0 22.27.17 33.32m-.17-49.3v7.82"/></g><defs><clipPath id="clip0_5_112"><path fill="#fff" transform="translate(.475 .43)" d="M0 0h85v85H0z"/></clipPath></defs></svg>