<svg width="100" height="69" fill="none" xmlns="http://www.w3.org/2000/svg"><path d="M42.781 16.164c-4.948.13-8.886.944-11.816 2.441-2.93 1.433-5.241 3.711-6.934 6.836 6.771 0 12.37 1.66 16.797 4.98 4.492 3.321 6.738 8.725 6.738 16.212 0 2.8-.488 5.534-1.464 8.203-.977 2.67-2.474 5.046-4.493 7.129-2.018 2.018-4.46 3.71-7.324 5.078-2.864 1.302-6.152 1.953-9.863 1.953-7.357 0-13.281-2.376-17.774-7.129C2.221 57.05.008 50.637.008 42.63c0-4.427.618-8.887 1.855-13.379 1.302-4.557 3.581-8.756 6.836-12.598 3.255-3.906 7.65-7.324 13.184-10.254 5.534-2.93 12.5-4.98 20.898-6.152v15.918zm52.051 0c-4.948.13-8.887.944-11.816 2.441-2.93 1.433-5.274 3.711-7.032 6.836 6.836 0 12.468 1.66 16.895 4.98 4.492 3.321 6.738 8.725 6.738 16.212 0 2.8-.52 5.534-1.562 8.203-.977 2.67-2.474 5.046-4.493 7.129-1.953 2.018-4.361 3.71-7.226 5.078-2.865 1.302-6.185 1.953-9.961 1.953-7.292 0-13.184-2.376-17.676-7.129-4.492-4.817-6.738-11.23-6.738-19.238 0-4.427.618-8.887 1.855-13.379 1.302-4.557 3.581-8.756 6.836-12.598 3.32-3.906 7.748-7.324 13.282-10.254 5.533-2.93 12.5-4.98 20.898-6.152v15.918z" fill="#17C3B2" fill-opacity=".5"/></svg>