<svg width="32" height="26" fill="none" xmlns="http://www.w3.org/2000/svg"><path d="M2.9.978h26.15C30.7.978 32 2.505 32 4.325V22.29c0 1.88-1.3 3.347-2.9 3.347H2.9c-1.6 0-2.9-1.527-2.9-3.347V4.325C0 2.505 1.3.978 2.9.978z" fill="#BC091C"/><path d="M0 22.291c0 1.82 1.3 3.347 2.9 3.347h26.2c1.6 0 2.9-1.468 2.9-3.347V9.198H0v13.093z" fill="#BC091C"/><path d="M32 6.38H0v13.798h32V6.38z" fill="#FFC400"/><path d="M5.7 11.605c0 .059.05.059 0 0 .05.059.05.059.1.059h.05v.058h.05s0 .059.05.059h.15-.35v.352h.15c-.05 0-.05 0-.05.059 0 0 0 .059.05.059s.05.058.05.058c0 .059 0 .059-.05.059 0 0-.05 0-.05.059 0 0 0 .058.05.058h.8c.05 0 .05 0 .05-.058 0 0 0-.06-.05-.06s-.05-.058-.05-.058c0-.058 0-.058.05-.058 0 0 .05 0 .05-.06 0 0 0-.058-.05-.058h.15v-.352H6.5h.15c.05 0 .05 0 .05-.059h.05v-.058h.05l.05-.059.05-.059v-.118l-.05-.058H6.8v-.058h-.3v-.177h.05v-.058H6.5v-.059h-.05v.059H6.4v.059h.05v.176H6.1v.058s-.05 0-.05.059l-.05.059v.117h-.05c-.3-.059-.3-.059-.25 0zm.75.235c-.05 0-.15 0-.2-.059.1 0 .15 0 .2.059zm-.25-.059c-.1 0-.25 0-.3.059.05-.059.15-.059.3-.059zm.55 5.93c0-.058 0-.058 0 0v-.293c-.05 0-.15-.059-.15-.117v-.06c.05 0 .05 0 .05-.058 0 0 0-.058-.05-.058h-.8c-.05 0-.05 0-.05.058 0 0 0 .059.05.059v.058c0 .06-.05.118-.15.118v.293c-.05.059-.1.059-.2.059v.117c.05 0 .15 0 .2-.058h.05-.05c-.05.058-.1.058-.2.058v.235c.05 0 .15 0 .2-.059-.05.059-.1.059-.2.059v.117c.05 0 .15 0 .2-.058.05 0 .1-.059.2-.059.05 0 .15 0 .2.059.05.058.1.058.2.058.05 0 .15 0 .2-.058.05 0 .1-.059.2-.059.05 0 .15 0 .2.059-.05 0-.1-.059-.2-.059-.05 0-.15 0-.2.059-.05 0-.1.058-.2.058-.05 0-.15 0-.2-.058-.05 0-.1-.059-.2-.059-.05 0-.15 0-.2.059-.05.058-.1.058-.2.058v.118c.05 0 .15 0 .2-.059.05 0 .1-.059.2-.059.05 0 .15 0 .2.059.05.059.1.059.2.059.05 0 .15 0 .2-.059.05 0 .1-.059.2-.059.05 0 .15 0 .2.059.05.059.1.059.2.059v-.587c-.2-.059-.25-.059-.3-.059zm-.35 0c-.05 0-.1.059-.2.059-.05 0-.15 0-.2-.059h.4zm-.55.059H5.8h.05zm.9.059c-.05 0-.1-.06-.2-.06-.05 0-.15 0-.2.06-.05.058-.1.058-.2.058-.05 0-.15 0-.2-.058.05.058.1.058.2.058.05 0 .15 0 .2-.058.05 0 .1-.06.2-.06s.15 0 .2.06zm6-6.341c-.05.058 0 .058 0 0-.05.058 0 .058 0 .058l.05.059.05.059h.05v.058h.05s0 .059.05.059h.15-.35v.352h.15c-.05 0-.05 0-.05.059 0 0 0 .058.05.058s.05.06.05.06c0 .058 0 .058-.05.058 0 0-.05 0-.05.058 0 0 0 .06.05.06h.8c.05 0 .05 0 .05-.06 0 0 0-.058-.05-.058s-.05-.059-.05-.059c0-.059 0-.059.05-.059 0 0 .05 0 .05-.058 0 0 0-.059-.05-.059h.15v-.352h-.35.15c.05 0 .05 0 .05-.059h.05v-.058h.05l.05-.06.05-.058v-.058c0-.06-.05-.176-.15-.176h-.05l.05.058h-.05c0-.058-.05-.117-.1-.117h-.1l.1.059h-.1v-.06c0-.058 0-.058-.05-.117v-.117h.05v-.059h-.05v-.058h-.05v.058h-.05v.06h.05v.116s-.05.058-.05.117v.059h-.1l.1-.06h-.1c-.05 0-.1.06-.1.118h-.05l.05-.058h-.05c-.3.058-.4.117-.4.176zm.8.352c-.05 0-.15 0-.2-.059.05 0 .15 0 .2.059zm-.3-.176zm0 .117c-.1 0-.25 0-.3.059.1-.059.2-.059.3-.059zm.6 5.93c-.05-.058-.05-.058 0 0v-.293c-.05 0-.15-.059-.15-.117v-.06c.05 0 .05 0 .05-.058 0 0 0-.058-.05-.058h-.8c-.05 0-.05 0-.05.058 0 0 0 .059.05.059v.058c0 .06-.05.118-.15.118v.293c-.05.059-.1.059-.2.059v.117c.05 0 .15 0 .2-.058h.05-.05c-.05.058-.1.058-.2.058v.235c.05 0 .15 0 .2-.059-.05.059-.1.059-.2.059v.117c.05 0 .15 0 .2-.058.05 0 .1-.059.2-.059.05 0 .15 0 .2.059.05.058.1.058.2.058.05 0 .15 0 .2-.058.05 0 .1-.059.2-.059.05 0 .15 0 .2.059-.05 0-.1-.059-.2-.059-.05 0-.15 0-.2.059-.05 0-.1.058-.2.058-.05 0-.15 0-.2-.058-.05 0-.1-.059-.2-.059-.05 0-.15 0-.2.059-.05.058-.1.058-.2.058v.118c.05 0 .15 0 .2-.059.05 0 .1-.059.2-.059.05 0 .15 0 .2.059.05.059.1.059.2.059.05 0 .15 0 .2-.059.05 0 .1-.059.2-.059.05 0 .15 0 .2.059.05.059.1.059.2.059v-.587c-.2-.059-.25-.059-.3-.059zm-.4 0c-.05 0-.1.059-.2.059-.05 0-.15 0-.2-.059h.4zm.4.118c-.05 0-.1-.06-.2-.06-.05 0-.15 0-.2.06-.05.058-.1.058-.2.058-.05 0-.15 0-.2-.058.05.058.1.058.2.058.05 0 .15 0 .2-.058.05 0 .1-.06.2-.06.05 0 .15 0 .2.06z" fill="#BC091C"/><path d="M14.05 14.659s.15-.47.2-.47c0-.176-.2-.353-.55-.47v-1.115h-.75v.998c-.3 0-.6.058-.75.117v-1.82h-1.75c.3-.059.6-.117.85-.176.05 0 .05-.059.05-.059s0-.059-.05-.059-.05-.058 0-.117l.1-.059-.05-.059c.05-.058.05-.058.1-.058s.05 0 .05-.059 0-.059-.05-.059h-.1.05c.05 0 .15 0 .2-.058l.15-.176h.1c.05-.06.05-.118 0-.118 0 0 .05-.117.1-.176.05-.059.15 0 .15 0 0-.117-.05-.176-.15-.176v-.059l.05-.059c.05-.117.1-.235.1-.352 0-.235-.15-.41-.3-.587l.05.059c-.15-.118-.4-.235-.65-.235h-.35l-.15-.176.1.117a.75.75 0 00-.6-.352c-.15 0-.3.058-.45.117 0 0 0-.059-.05-.059h.05c.05 0 .05 0 .05-.058 0-.059 0-.059-.05-.059s-.05 0-.05.059c0 0-.05-.059-.1-.059.05 0 .1-.059.15-.117v-.118c0-.117-.05-.176-.15-.235v-.176h.1v-.117h-.1v-.118h-.1v.118h-.1v.117h.1v.176c-.1 0-.15.118-.15.235v.118c.05.058.1.117.15.117-.05 0-.05.059-.1.059 0-.059 0-.059-.05-.059s-.05 0-.05.059c0 .058 0 .058.05.058h.05s0 .06-.05.06a.88.88 0 00-.45-.118c-.25 0-.5.117-.6.352.05-.059.05-.117.1-.117l-.15.176H7.9c-.25 0-.45.058-.6.176-.2.117-.3.352-.3.587 0 .117.05.235.1.352l.05.06c-.05 0-.1.058-.1.175h.15c.05.059.1.176.1.176 0 .06 0 .06.05.118.05.059.05.059.1 0 .05.059.1.176.15.176.05.059.15.059.2.059h.05-.05c-.05 0-.05.058-.05.058 0 .06.05.06.05.06s.05 0 .1.058l-.05.059.1.058v.118l-.05.058c0 .06 0 .06.05.06.25.058.5.117.85.175H7.05v1.82a2.337 2.337 0 00-.75-.117v-.998h-.75v1.115c-.35.118-.6.294-.55.47l.2.47c0 .117.15.176.4.176v-.411h-.2c.05-.059.1-.059.2-.117v1.057c-.3.117-.5.293-.5.352l.05.47c0 .058.05.058.1.117.1.058.1.176.1.235a.48.48 0 00.1-.235c0-.118-.05-.176-.1-.235a.355.355 0 01.25-.117v1.233h.75V15.48c.25-.176.35-.293.35-.352 0 0-.05-.41-.05-.47-.05-.058-.15-.058-.3-.117v.411-.822c.3 0 .6.059.75.176v2.701c0 .117.05.294.1.411.05.059.05.117.1.235 0 .059.05.059.05.117.1.118.25.235.35.353a3.6 3.6 0 001.75.47 3.6 3.6 0 001.75-.47c.25-.177.45-.411.55-.764.05-.117.05-.293.05-.41v-2.585c.15-.059.45-.117.75-.117v.234c-.15 0-.25.059-.3.118l-.05.47c-.05.058.1.176.35.352v1.644h.75v-1.233c.1.059.15.059.25.117a.48.48 0 00-.1.235c0 .117.05.176.1.235-.05-.059 0-.176.1-.235.05-.059.1-.059.1-.117l.05-.47c0-.059-.2-.235-.5-.352v-1.057c.05.059.15.059.2.117h-.2v.411c.6.059.7 0 .75-.059zM12 10.136s0-.058.05-.058l-.05.058zm-.95-.822h.25c.35 0 .65.177.7.353 0 .058.05.117.05.176 0 .059 0 .176-.05.235a1.078 1.078 0 00-.25-.176c-.25-.118-.4-.118-.55-.118h-.1v-.116c.05 0 .05 0 .05-.059 0 0 0-.059-.05-.059v-.058s.05 0 .05-.06c0-.058 0-.058-.05-.058s-.05-.059-.05-.059zm-2.65.06c-.05 0-.05 0-.05.058 0 0 0 .059.05.059v.058s-.05 0-.05.059 0 .059.05.059v.118h-.15c-.15 0-.3.058-.5.117-.1.058-.15.117-.25.176-.05-.059-.05-.118-.05-.235 0-.059 0-.118.05-.176.1-.235.35-.353.7-.353h.25c-.05 0-.05.06-.05.06zm-1.6 5.342l-.05.059c.05 0 .05-.059.05-.059zm3.55-5.754c.3 0 .55.176.6.47v.059c0 .117-.05.176-.1.234a.646.646 0 01-.35-.117 1.563 1.563 0 00-.55-.117v-.353c.05-.117.2-.176.4-.176zm-1.4.646c-.1.059-.2.059-.35.117a.48.48 0 01-.1-.234v-.06c0-.234.25-.469.6-.469.15 0 .3.059.4.118v.352c-.2.059-.4.117-.55.176zm.8 1.761h-.4.65-.25z" fill="#BC091C"/><path d="M7.3 10.431c.028 0 .05-.026.05-.058 0-.033-.022-.06-.05-.06-.028 0-.05.027-.05.06 0 .032.022.059.05.059zm-.05-.117c.028 0 .05-.026.05-.059 0-.032-.022-.059-.05-.059-.028 0-.05.027-.05.06 0 .032.022.058.05.058zm-.05-.176c.028 0 .05-.027.05-.059 0-.033-.022-.059-.05-.059-.028 0-.05.026-.05.059 0 .032.022.059.05.059zm0-.176c.028 0 .05-.027.05-.06 0-.032-.022-.058-.05-.058-.028 0-.05.026-.05.059 0 .032.022.059.05.059zm0-.235c.028 0 .05-.027.05-.06 0-.032-.022-.058-.05-.058-.028 0-.05.026-.05.059 0 .032.022.059.05.059zm.1-.117c.028 0 .05-.027.05-.06 0-.032-.022-.058-.05-.058-.028 0-.05.026-.05.059 0 .032.022.058.05.058zm.1-.177c.028 0 .05-.026.05-.059 0-.032-.022-.059-.05-.059-.028 0-.05.027-.05.06 0 .032.022.058.05.058zm.15-.117c.028 0 .05-.026.05-.059s-.022-.059-.05-.059c-.028 0-.05.026-.05.059s.022.059.05.059zm.1-.059c.028 0 .05-.026.05-.059 0-.032-.022-.059-.05-.059-.028 0-.05.027-.05.06 0 .032.022.058.05.058zm.2-.059c.028 0 .05-.026.05-.058 0-.033-.022-.06-.05-.06-.028 0-.05.027-.05.06 0 .032.022.058.05.058zM8 9.14c.028 0 .05-.027.05-.06 0-.032-.022-.058-.05-.058-.028 0-.05.026-.05.059 0 .032.022.059.05.059zm.15 0c.028 0 .05-.027.05-.06 0-.032-.022-.058-.05-.058-.028 0-.05.026-.05.059 0 .032.022.059.05.059zm.15 0c.028 0 .05-.027.05-.06 0-.032-.022-.058-.05-.058-.028 0-.05.026-.05.059 0 .032.022.059.05.059zm.2 0c.028 0 .05-.027.05-.06 0-.032-.022-.058-.05-.058-.028 0-.05.026-.05.059 0 .032.022.059.05.059zm.1-.118c.028 0 .05-.026.05-.059 0-.032-.022-.059-.05-.059-.028 0-.05.027-.05.06 0 .032.022.058.05.058zm.15-.058c.028 0 .05-.027.05-.06 0-.032-.022-.058-.05-.058-.028 0-.05.026-.05.059 0 .032.022.059.05.059zm.15-.059c.028 0 .05-.026.05-.059s-.022-.059-.05-.059c-.028 0-.05.026-.05.059s.022.059.05.059zm.15-.059c.028 0 .05-.026.05-.059 0-.032-.022-.059-.05-.059-.028 0-.05.027-.05.06 0 .032.022.058.05.058zm.15 0c.028 0 .05-.026.05-.059 0-.032-.022-.059-.05-.059-.028 0-.05.027-.05.06 0 .032.022.058.05.058zm.2.059c.028 0 .05-.026.05-.059s-.022-.059-.05-.059c-.028 0-.05.026-.05.059s.022.059.05.059zm.65 0c.028 0 .05-.026.05-.059s-.022-.059-.05-.059c-.028 0-.05.026-.05.059s.022.059.05.059zm.15-.059c.027 0 .05-.026.05-.059 0-.032-.023-.059-.05-.059-.028 0-.05.027-.05.06 0 .032.022.058.05.058zm.2 0c.028 0 .05-.026.05-.059 0-.032-.022-.059-.05-.059-.027 0-.05.027-.05.06 0 .032.023.058.05.058zm.15.059c.028 0 .05-.026.05-.059s-.022-.059-.05-.059c-.028 0-.05.026-.05.059s.022.059.05.059zm.15.059c.027 0 .05-.027.05-.06 0-.032-.023-.058-.05-.058-.028 0-.05.026-.05.059 0 .032.022.059.05.059zm.15.058c.028 0 .05-.026.05-.059 0-.032-.022-.059-.05-.059-.028 0-.05.027-.05.06 0 .032.022.058.05.058zm.1.118c.027 0 .05-.027.05-.06 0-.032-.023-.058-.05-.058-.028 0-.05.026-.05.059 0 .032.022.059.05.059zm.2 0c.028 0 .05-.027.05-.06 0-.032-.022-.058-.05-.058-.027 0-.05.026-.05.059 0 .032.023.059.05.059zm.15 0c.028 0 .05-.027.05-.06 0-.032-.022-.058-.05-.058-.028 0-.05.026-.05.059 0 .032.022.059.05.059zm.15 0c.027 0 .05-.027.05-.06 0-.032-.023-.058-.05-.058-.028 0-.05.026-.05.059 0 .032.022.059.05.059zm.15.058c.028 0 .05-.026.05-.058 0-.033-.022-.06-.05-.06-.028 0-.05.027-.05.06 0 .032.022.058.05.058zm.15.059c.028 0 .05-.026.05-.059 0-.032-.022-.059-.05-.059-.028 0-.05.027-.05.06 0 .032.022.058.05.058zm.15.059c.028 0 .05-.026.05-.059s-.022-.059-.05-.059c-.027 0-.05.026-.05.059s.023.059.05.059zm.15.117c.028 0 .05-.026.05-.059 0-.032-.022-.059-.05-.059-.028 0-.05.027-.05.06 0 .032.022.058.05.058zm.1.177c.028 0 .05-.027.05-.06 0-.032-.022-.058-.05-.058-.027 0-.05.026-.05.059 0 .032.023.058.05.058zm.1.117c.028 0 .05-.027.05-.06 0-.032-.022-.058-.05-.058-.028 0-.05.026-.05.059 0 .032.022.059.05.059zm0 .235c.028 0 .05-.027.05-.06 0-.032-.022-.058-.05-.058-.028 0-.05.026-.05.059 0 .032.022.059.05.059zm0 .176c.028 0 .05-.027.05-.059 0-.033-.022-.059-.05-.059-.028 0-.05.026-.05.059 0 .032.022.059.05.059zm-.05.176c.027 0 .05-.026.05-.059 0-.032-.023-.059-.05-.059-.028 0-.05.027-.05.06 0 .032.022.058.05.058zm-.05.117c.028 0 .05-.026.05-.058 0-.033-.022-.06-.05-.06-.027 0-.05.027-.05.06 0 .032.023.059.05.059z" fill="#BC091C"/></svg>